<svg width="4em" height="4em" viewBox="0 0 69 48" fill="none" xmlns="http://www.w3.org/2000/svg">
<path d="M9.4375 30.3125V47H0.65625V1.5H16.2188C18.6979 1.5 20.9375 1.86458 22.9375 2.59375C24.9375 3.30208 26.6458 4.29167 28.0625 5.5625C29.4583 6.85417 30.5312 8.39583 31.2812 10.1875C32.0521 11.9792 32.4375 13.9688 32.4375 16.1562C32.4375 18.1979 32.0521 20.0833 31.2812 21.8125C30.5312 23.5417 29.4583 25.0312 28.0625 26.2812C26.6458 27.5521 24.9375 28.5417 22.9375 29.25C20.9375 29.9583 18.6979 30.3125 16.2188 30.3125H9.4375ZM9.4375 23.1875H16.2188C17.4688 23.1875 18.5521 23 19.4688 22.625C20.3854 22.25 21.1562 21.7396 21.7812 21.0938C22.3854 20.4479 22.8333 19.7083 23.125 18.875C23.4375 18.0208 23.5938 17.1354 23.5938 16.2188C23.5938 15.1562 23.4375 14.1667 23.125 13.25C22.8333 12.3333 22.3854 11.5312 21.7812 10.8438C21.1562 10.1562 20.3854 9.61458 19.4688 9.21875C18.5521 8.82292 17.4688 8.625 16.2188 8.625H9.4375V23.1875ZM68.4688 29.6875C68.4688 32.625 68.125 35.2188 67.4375 37.4688C66.7708 39.6979 65.8021 41.5625 64.5312 43.0625C63.2604 44.5833 61.7083 45.7292 59.875 46.5C58.0417 47.2708 55.9792 47.6562 53.6875 47.6562C51.4167 47.6562 49.3646 47.2708 47.5312 46.5C45.6979 45.7292 44.1458 44.5833 42.875 43.0625C41.5833 41.5625 40.5833 39.6979 39.875 37.4688C39.1875 35.2188 38.8438 32.625 38.8438 29.6875V18.8125C38.8438 15.875 39.1875 13.2917 39.875 11.0625C40.5625 8.8125 41.5521 6.92708 42.8438 5.40625C44.1146 3.90625 45.6562 2.77083 47.4688 2C49.3021 1.22917 51.3542 0.84375 53.625 0.84375C55.9167 0.84375 57.9792 1.22917 59.8125 2C61.6458 2.77083 63.2083 3.90625 64.5 5.40625C65.7708 6.92708 66.75 8.8125 67.4375 11.0625C68.125 13.2917 68.4688 15.875 68.4688 18.8125V29.6875ZM47.5938 25.9375L59.7188 16.9062C59.6771 15.1979 59.4896 13.7396 59.1562 12.5312C58.8438 11.3021 58.375 10.3229 57.75 9.59375C57.2708 9.01042 56.6771 8.58333 55.9688 8.3125C55.2812 8.02083 54.5 7.875 53.625 7.875C52.6458 7.875 51.7812 8.0625 51.0312 8.4375C50.3021 8.79167 49.6875 9.33333 49.1875 10.0625C48.6458 10.8333 48.2396 11.8333 47.9688 13.0625C47.7188 14.2917 47.5938 15.75 47.5938 17.4375V22.4688C47.5938 23.4688 47.5938 24.1354 47.5938 24.4688C47.5938 24.8021 47.5938 25.2917 47.5938 25.9375ZM59.7188 31V25.7188C59.7188 25.0312 59.7188 24.5312 59.7188 24.2188C59.7188 23.8854 59.7188 23.4167 59.7188 22.8125L47.5938 31.8125C47.6354 33.1875 47.7708 34.4062 48 35.4688C48.25 36.5312 48.5938 37.4167 49.0312 38.125C49.5312 38.9792 50.1667 39.6146 50.9375 40.0312C51.7083 40.4479 52.625 40.6562 53.6875 40.6562C54.6667 40.6562 55.5312 40.4792 56.2812 40.125C57.0312 39.75 57.6562 39.1875 58.1562 38.4375C58.6771 37.6458 59.0625 36.6354 59.3125 35.4062C59.5833 34.1562 59.7188 32.6875 59.7188 31Z" fill="currentColor"/>
</svg>
