<svg width="2em" height="2em" viewBox="0 0 61 46" fill="none" xmlns="http://www.w3.org/2000/svg">
<path d="M9.4375 29.3125V46H0.65625V0.5H16.2188C18.6979 0.5 20.9375 0.864583 22.9375 1.59375C24.9375 2.30208 26.6458 3.29167 28.0625 4.5625C29.4583 5.85417 30.5312 7.39583 31.2812 9.1875C32.0521 10.9792 32.4375 12.9688 32.4375 15.1562C32.4375 17.1979 32.0521 19.0833 31.2812 20.8125C30.5312 22.5417 29.4583 24.0312 28.0625 25.2812C26.6458 26.5521 24.9375 27.5417 22.9375 28.25C20.9375 28.9583 18.6979 29.3125 16.2188 29.3125H9.4375ZM9.4375 22.1875H16.2188C17.4688 22.1875 18.5521 22 19.4688 21.625C20.3854 21.25 21.1562 20.7396 21.7812 20.0938C22.3854 19.4479 22.8333 18.7083 23.125 17.875C23.4375 17.0208 23.5938 16.1354 23.5938 15.2188C23.5938 14.1562 23.4375 13.1667 23.125 12.25C22.8333 11.3333 22.3854 10.5312 21.7812 9.84375C21.1562 9.15625 20.3854 8.61458 19.4688 8.21875C18.5521 7.82292 17.4688 7.625 16.2188 7.625H9.4375V22.1875ZM60.125 46H51.3438V11.0938L39.8438 15.2188V7.65625L59.6562 0.5H60.125V46Z" fill="currentColor"/>
</svg>
