<svg width="4em" height="4em" viewBox="0 0 69 47" fill="none" xmlns="http://www.w3.org/2000/svg">
<path d="M9.4375 30.3125V47H0.65625V1.5H16.2188C18.6979 1.5 20.9375 1.86458 22.9375 2.59375C24.9375 3.30208 26.6458 4.29167 28.0625 5.5625C29.4583 6.85417 30.5312 8.39583 31.2812 10.1875C32.0521 11.9792 32.4375 13.9688 32.4375 16.1562C32.4375 18.1979 32.0521 20.0833 31.2812 21.8125C30.5312 23.5417 29.4583 25.0312 28.0625 26.2812C26.6458 27.5521 24.9375 28.5417 22.9375 29.25C20.9375 29.9583 18.6979 30.3125 16.2188 30.3125H9.4375ZM9.4375 23.1875H16.2188C17.4688 23.1875 18.5521 23 19.4688 22.625C20.3854 22.25 21.1562 21.7396 21.7812 21.0938C22.3854 20.4479 22.8333 19.7083 23.125 18.875C23.4375 18.0208 23.5938 17.1354 23.5938 16.2188C23.5938 15.1562 23.4375 14.1667 23.125 13.25C22.8333 12.3333 22.3854 11.5312 21.7812 10.8438C21.1562 10.1562 20.3854 9.61458 19.4688 9.21875C18.5521 8.82292 17.4688 8.625 16.2188 8.625H9.4375V23.1875ZM68.5938 47H37.5625V41.0625L52.2812 25.25C53.4271 24 54.3958 22.8646 55.1875 21.8438C55.9792 20.8229 56.625 19.8854 57.125 19.0312C57.6042 18.1979 57.9479 17.4167 58.1562 16.6875C58.3854 15.9583 58.5 15.25 58.5 14.5625C58.5 13.5417 58.3542 12.6354 58.0625 11.8438C57.7708 11.0521 57.3646 10.375 56.8438 9.8125C56.3021 9.27083 55.6562 8.85417 54.9062 8.5625C54.1771 8.27083 53.3646 8.125 52.4688 8.125C51.3021 8.125 50.2708 8.29167 49.375 8.625C48.5 8.9375 47.7708 9.40625 47.1875 10.0312C46.5833 10.6771 46.125 11.4792 45.8125 12.4375C45.5 13.3958 45.3438 14.4896 45.3438 15.7188H36.625C36.625 13.6979 37.0104 11.7917 37.7812 10C38.5521 8.1875 39.6458 6.60417 41.0625 5.25C42.4583 3.89583 44.1458 2.83333 46.125 2.0625C48.125 1.27083 50.3333 0.875 52.75 0.875C55.0625 0.875 57.1042 1.19792 58.875 1.84375C60.6667 2.48958 62.1667 3.39583 63.375 4.5625C64.5625 5.72917 65.4688 7.13542 66.0938 8.78125C66.7188 10.4062 67.0312 12.2083 67.0312 14.1875C67.0312 15.6875 66.7917 17.125 66.3125 18.5C65.8542 19.8542 65.1979 21.1979 64.3438 22.5312C63.4688 23.8646 62.4271 25.2292 61.2188 26.625C60.0104 28 58.6667 29.4479 57.1875 30.9688L48.625 40.0312H68.5938V47Z" fill="currentColor"/>
</svg>
